<mxfile host="app.diagrams.net" modified="2023-01-25T03:51:30.241Z" agent="5.0 (Windows NT 10.0; Win64; x64) AppleWebKit/537.36 (KHTML, like Gecko) Chrome/109.0.0.0 Safari/537.36" etag="SR7jevM-QYJE5b-NAyzm" version="20.8.10" type="github">
  <diagram name="ページ1" id="s-ISI4WVonw5YIq1L5d-">
    <mxGraphModel dx="256" dy="126" grid="1" gridSize="10" guides="1" tooltips="1" connect="1" arrows="1" fold="1" page="1" pageScale="1" pageWidth="827" pageHeight="1169" math="0" shadow="0">
      <root>
        <mxCell id="0" />
        <mxCell id="1" parent="0" />
        <mxCell id="sCpW_vkLLWC8tZ_yW1EY-34" value="" style="whiteSpace=wrap;html=1;strokeColor=none;fillColor=#00CC00;" vertex="1" parent="1">
          <mxGeometry x="60" y="80" width="200" height="120" as="geometry" />
        </mxCell>
        <mxCell id="sCpW_vkLLWC8tZ_yW1EY-35" value="1" style="ellipse;whiteSpace=wrap;html=1;aspect=fixed;" vertex="1" parent="1">
          <mxGeometry x="80" y="90" width="30" height="30" as="geometry" />
        </mxCell>
        <mxCell id="sCpW_vkLLWC8tZ_yW1EY-36" value="2" style="ellipse;whiteSpace=wrap;html=1;aspect=fixed;" vertex="1" parent="1">
          <mxGeometry x="210" y="110" width="30" height="30" as="geometry" />
        </mxCell>
        <mxCell id="sCpW_vkLLWC8tZ_yW1EY-37" value="" style="ellipse;whiteSpace=wrap;html=1;aspect=fixed;fillColor=#000000;" vertex="1" parent="1">
          <mxGeometry x="110" y="100" width="10" height="10" as="geometry" />
        </mxCell>
        <mxCell id="sCpW_vkLLWC8tZ_yW1EY-38" value="" style="endArrow=classic;html=1;rounded=0;exitX=1;exitY=1;exitDx=0;exitDy=0;entryX=0;entryY=0.5;entryDx=0;entryDy=0;" edge="1" parent="1" source="sCpW_vkLLWC8tZ_yW1EY-37" target="sCpW_vkLLWC8tZ_yW1EY-44">
          <mxGeometry width="50" height="50" relative="1" as="geometry">
            <mxPoint x="170" y="230" as="sourcePoint" />
            <mxPoint x="200" y="120" as="targetPoint" />
          </mxGeometry>
        </mxCell>
        <mxCell id="sCpW_vkLLWC8tZ_yW1EY-39" value="" style="endArrow=none;html=1;rounded=0;exitX=0.001;exitY=0.83;exitDx=0;exitDy=0;exitPerimeter=0;entryX=1;entryY=0.833;entryDx=0;entryDy=0;entryPerimeter=0;strokeColor=#FFFFFF;" edge="1" parent="1" source="sCpW_vkLLWC8tZ_yW1EY-34" target="sCpW_vkLLWC8tZ_yW1EY-34">
          <mxGeometry width="50" height="50" relative="1" as="geometry">
            <mxPoint x="130" y="190" as="sourcePoint" />
            <mxPoint x="180" y="140" as="targetPoint" />
          </mxGeometry>
        </mxCell>
        <mxCell id="sCpW_vkLLWC8tZ_yW1EY-40" value="" style="rounded=0;whiteSpace=wrap;html=1;strokeColor=none;fillColor=#000000;" vertex="1" parent="1">
          <mxGeometry x="98.75" y="179" width="122.5" height="16" as="geometry" />
        </mxCell>
        <mxCell id="sCpW_vkLLWC8tZ_yW1EY-41" value="" style="endArrow=classic;html=1;rounded=0;exitX=0;exitY=1;exitDx=0;exitDy=0;entryX=0.5;entryY=0;entryDx=0;entryDy=0;" edge="1" parent="1" source="sCpW_vkLLWC8tZ_yW1EY-44" target="sCpW_vkLLWC8tZ_yW1EY-40">
          <mxGeometry width="50" height="50" relative="1" as="geometry">
            <mxPoint x="128.53553390593913" y="118.53553390593908" as="sourcePoint" />
            <mxPoint x="220.0000000000001" y="135" as="targetPoint" />
          </mxGeometry>
        </mxCell>
        <mxCell id="sCpW_vkLLWC8tZ_yW1EY-42" value="パス" style="text;html=1;strokeColor=none;fillColor=none;align=center;verticalAlign=middle;whiteSpace=wrap;rounded=0;" vertex="1" parent="1">
          <mxGeometry x="130" y="90" width="60" height="30" as="geometry" />
        </mxCell>
        <mxCell id="sCpW_vkLLWC8tZ_yW1EY-43" value="シュート" style="text;html=1;strokeColor=none;fillColor=none;align=left;verticalAlign=middle;whiteSpace=wrap;rounded=0;" vertex="1" parent="1">
          <mxGeometry x="190" y="140" width="70" height="30" as="geometry" />
        </mxCell>
        <mxCell id="sCpW_vkLLWC8tZ_yW1EY-44" value="" style="ellipse;whiteSpace=wrap;html=1;aspect=fixed;fillColor=none;dashed=1;dashPattern=1 1;" vertex="1" parent="1">
          <mxGeometry x="200" y="120" width="10" height="10" as="geometry" />
        </mxCell>
      </root>
    </mxGraphModel>
  </diagram>
</mxfile>
